<svg width="27" height="29" viewBox="0 0 27 29" fill="none" xmlns="http://www.w3.org/2000/svg">
<path id="assignment_turned_in" d="M11.2278 17.7778L8.12222 14.6722C7.85741 14.4074 7.52037 14.275 7.11111 14.275C6.70185 14.275 6.36481 14.4074 6.1 14.6722C5.83519 14.937 5.70278 15.2741 5.70278 15.6833C5.70278 16.0926 5.83519 16.4296 6.1 16.6944L10.2167 20.8111C10.5056 21.1 10.8426 21.2444 11.2278 21.2444C11.613 21.2444 11.95 21.1 12.2389 20.8111L20.4 12.65C20.6648 12.3852 20.7972 12.0481 20.7972 11.6389C20.7972 11.2296 20.6648 10.8926 20.4 10.6278C20.1352 10.3629 19.7981 10.2305 19.3889 10.2305C18.9796 10.2305 18.6426 10.3629 18.3778 10.6278L11.2278 17.7778ZM3.13889 28.9722C2.34444 28.9722 1.66435 28.6893 1.09861 28.1236C0.53287 27.5578 0.25 26.8778 0.25 26.0833V5.86109C0.25 5.06665 0.53287 4.38655 1.09861 3.82081C1.66435 3.25507 2.34444 2.9722 3.13889 2.9722H9.20556C9.51852 2.10554 10.0421 1.40739 10.7764 0.877757C11.5106 0.348128 12.3352 0.083313 13.25 0.083313C14.1648 0.083313 14.9894 0.348128 15.7236 0.877757C16.4579 1.40739 16.9815 2.10554 17.2944 2.9722H23.3611C24.1556 2.9722 24.8356 3.25507 25.4014 3.82081C25.9671 4.38655 26.25 5.06665 26.25 5.86109V26.0833C26.25 26.8778 25.9671 27.5578 25.4014 28.1236C24.8356 28.6893 24.1556 28.9722 23.3611 28.9722H3.13889ZM3.13889 26.0833H23.3611V5.86109H3.13889V26.0833ZM13.25 4.77776C13.563 4.77776 13.8218 4.67544 14.0264 4.47081C14.231 4.26618 14.3333 4.00739 14.3333 3.69442C14.3333 3.38146 14.231 3.12266 14.0264 2.91804C13.8218 2.71341 13.563 2.61109 13.25 2.61109C12.937 2.61109 12.6782 2.71341 12.4736 2.91804C12.269 3.12266 12.1667 3.38146 12.1667 3.69442C12.1667 4.00739 12.269 4.26618 12.4736 4.47081C12.6782 4.67544 12.937 4.77776 13.25 4.77776Z" fill="#E40428"/>
</svg>
