<svg width="26" height="26" viewBox="0 0 26 26" fill="none" xmlns="http://www.w3.org/2000/svg">
<path id="schedule" d="M14.3 12.48V7.8C14.3 7.43167 14.1754 7.12292 13.9263 6.87375C13.6771 6.62458 13.3683 6.5 13 6.5C12.6317 6.5 12.3229 6.62458 12.0738 6.87375C11.8246 7.12292 11.7 7.43167 11.7 7.8V12.9675C11.7 13.1408 11.7325 13.3088 11.7975 13.4713C11.8625 13.6338 11.96 13.78 12.09 13.91L16.38 18.2C16.6183 18.4383 16.9217 18.5575 17.29 18.5575C17.6583 18.5575 17.9617 18.4383 18.2 18.2C18.4383 17.9617 18.5575 17.6583 18.5575 17.29C18.5575 16.9217 18.4383 16.6183 18.2 16.38L14.3 12.48ZM13 26C11.2017 26 9.51167 25.6588 7.93 24.9763C6.34833 24.2938 4.9725 23.3675 3.8025 22.1975C2.6325 21.0275 1.70625 19.6517 1.02375 18.07C0.34125 16.4883 0 14.7983 0 13C0 11.2017 0.34125 9.51167 1.02375 7.93C1.70625 6.34833 2.6325 4.9725 3.8025 3.8025C4.9725 2.6325 6.34833 1.70625 7.93 1.02375C9.51167 0.34125 11.2017 0 13 0C14.7983 0 16.4883 0.34125 18.07 1.02375C19.6517 1.70625 21.0275 2.6325 22.1975 3.8025C23.3675 4.9725 24.2938 6.34833 24.9763 7.93C25.6588 9.51167 26 11.2017 26 13C26 14.7983 25.6588 16.4883 24.9763 18.07C24.2938 19.6517 23.3675 21.0275 22.1975 22.1975C21.0275 23.3675 19.6517 24.2938 18.07 24.9763C16.4883 25.6588 14.7983 26 13 26ZM13 23.4C15.8817 23.4 18.3354 22.3871 20.3613 20.3613C22.3871 18.3354 23.4 15.8817 23.4 13C23.4 10.1183 22.3871 7.66458 20.3613 5.63875C18.3354 3.61292 15.8817 2.6 13 2.6C10.1183 2.6 7.66458 3.61292 5.63875 5.63875C3.61292 7.66458 2.6 10.1183 2.6 13C2.6 15.8817 3.61292 18.3354 5.63875 20.3613C7.66458 22.3871 10.1183 23.4 13 23.4Z" fill="#E40428"/>
</svg>
