<svg width="26" height="26" viewBox="0 0 26 26" fill="none" xmlns="http://www.w3.org/2000/svg">
<path id="explore" d="M13 14.025C12.6317 14.025 12.3229 13.9028 12.0738 13.6584C11.8246 13.4141 11.7 13.1112 11.7 12.75C11.7 12.3888 11.8246 12.0859 12.0738 11.8416C12.3229 11.5972 12.6317 11.475 13 11.475C13.3683 11.475 13.6771 11.5972 13.9263 11.8416C14.1754 12.0859 14.3 12.3888 14.3 12.75C14.3 13.1112 14.1754 13.4141 13.9263 13.6584C13.6771 13.9028 13.3683 14.025 13 14.025ZM13 25.5C11.2017 25.5 9.51167 25.1653 7.93 24.4959C6.34833 23.8266 4.9725 22.9181 3.8025 21.7706C2.6325 20.6231 1.70625 19.2738 1.02375 17.7225C0.34125 16.1713 0 14.5138 0 12.75C0 10.9862 0.34125 9.32875 1.02375 7.7775C1.70625 6.22625 2.6325 4.87688 3.8025 3.72938C4.9725 2.58187 6.34833 1.67344 7.93 1.00406C9.51167 0.334688 11.2017 0 13 0C14.7983 0 16.4883 0.334688 18.07 1.00406C19.6517 1.67344 21.0275 2.58187 22.1975 3.72938C23.3675 4.87688 24.2938 6.22625 24.9763 7.7775C25.6588 9.32875 26 10.9862 26 12.75C26 14.5138 25.6588 16.1713 24.9763 17.7225C24.2938 19.2738 23.3675 20.6231 22.1975 21.7706C21.0275 22.9181 19.6517 23.8266 18.07 24.4959C16.4883 25.1653 14.7983 25.5 13 25.5ZM13 22.95C15.9033 22.95 18.3625 21.9619 20.3775 19.9856C22.3925 18.0094 23.4 15.5975 23.4 12.75C23.4 9.9025 22.3925 7.49063 20.3775 5.51438C18.3625 3.53813 15.9033 2.55 13 2.55C10.0967 2.55 7.6375 3.53813 5.6225 5.51438C3.6075 7.49063 2.6 9.9025 2.6 12.75C2.6 15.5975 3.6075 18.0094 5.6225 19.9856C7.6375 21.9619 10.0967 22.95 13 22.95ZM7.0525 19.2206L15.1775 15.4913C15.3075 15.4275 15.4267 15.3425 15.535 15.2363C15.6433 15.13 15.73 15.0131 15.795 14.8856L19.5975 6.91688C19.7058 6.70438 19.6788 6.51844 19.5163 6.35906C19.3538 6.19969 19.1642 6.17313 18.9475 6.27938L10.8225 10.0087C10.6925 10.0725 10.5733 10.1575 10.465 10.2638C10.3567 10.37 10.27 10.4869 10.205 10.6144L6.4025 18.5831C6.29417 18.7956 6.32125 18.9816 6.48375 19.1409C6.64625 19.3003 6.83583 19.3269 7.0525 19.2206Z" fill="#E40428"/>
</svg>
