<svg width="29" height="25" viewBox="0 0 29 25" fill="black" xmlns="http://www.w3.org/2000/svg">
<path id="school" d="M5.50896 20.7736C5.04699 20.511 4.68897 20.1588 4.43489 19.717C4.1808 19.2753 4.05376 18.7798 4.05376 18.2307V11.3539L0.727599 9.45559C0.473517 9.31232 0.28873 9.13324 0.173238 8.91834C0.0577459 8.70344 0 8.46466 0 8.202C0 7.93935 0.0577459 7.70057 0.173238 7.48567C0.28873 7.27077 0.473517 7.09169 0.727599 6.94842L12.4385 0.358166C12.6464 0.238777 12.86 0.149236 13.0795 0.0895415C13.2989 0.0298472 13.5241 0 13.7551 0C13.9861 0 14.2113 0.0298472 14.4307 0.0895415C14.6501 0.149236 14.8638 0.238777 15.0717 0.358166L28.2724 7.80802C28.5034 7.92741 28.6824 8.10052 28.8094 8.32736C28.9365 8.5542 29 8.79895 29 9.0616V18.2307C29 18.6366 28.8672 18.9768 28.6016 19.2514C28.3359 19.526 28.0068 19.6633 27.6141 19.6633C27.2214 19.6633 26.8923 19.526 26.6266 19.2514C26.361 18.9768 26.2282 18.6366 26.2282 18.2307V9.77794L23.4564 11.3539V18.2307C23.4564 18.7798 23.3294 19.2753 23.0753 19.717C22.8212 20.1588 22.4632 20.511 22.0012 20.7736L15.0717 24.6418C14.8638 24.7612 14.6501 24.8508 14.4307 24.9105C14.2113 24.9702 13.9861 25 13.7551 25C13.5241 25 13.2989 24.9702 13.0795 24.9105C12.86 24.8508 12.6464 24.7612 12.4385 24.6418L5.50896 20.7736ZM13.7551 13.5029L23.2485 8.202L13.7551 2.90115L4.26165 8.202L13.7551 13.5029ZM13.7551 22.1347L20.6846 18.2665V12.8582L15.1063 16.0458C14.8984 16.1652 14.679 16.2548 14.448 16.3145C14.217 16.3742 13.9861 16.404 13.7551 16.404C13.5241 16.404 13.2931 16.3742 13.0621 16.3145C12.8311 16.2548 12.6117 16.1652 12.4038 16.0458L6.82557 12.8582V18.2665L13.7551 22.1347Z" fill="#E40428"/>
</svg>
